<svg width="22" height="22" viewBox="0 0 22 22" fill="none" xmlns="http://www.w3.org/2000/svg">
<path d="M4.00081 5.41396L0.757812 2.17196L2.17281 0.756958L5.41481 3.99996H20.6568C20.8127 3.99995 20.9664 4.03637 21.1057 4.10633C21.245 4.17628 21.366 4.27782 21.459 4.40285C21.5521 4.52789 21.6147 4.67294 21.6417 4.82644C21.6688 4.97995 21.6595 5.13765 21.6148 5.28696L19.2148 13.287C19.1531 13.493 19.0265 13.6737 18.8539 13.8022C18.6813 13.9306 18.4719 14 18.2568 14H6.00081V16H17.0008V18H5.00081C4.7356 18 4.48124 17.8946 4.29371 17.7071C4.10617 17.5195 4.00081 17.2652 4.00081 17V5.41396ZM5.50081 22C5.10299 22 4.72146 21.8419 4.44015 21.5606C4.15885 21.2793 4.00081 20.8978 4.00081 20.5C4.00081 20.1021 4.15885 19.7206 4.44015 19.4393C4.72146 19.158 5.10299 19 5.50081 19C5.89864 19 6.28017 19.158 6.56147 19.4393C6.84278 19.7206 7.00081 20.1021 7.00081 20.5C7.00081 20.8978 6.84278 21.2793 6.56147 21.5606C6.28017 21.8419 5.89864 22 5.50081 22ZM17.5008 22C17.103 22 16.7215 21.8419 16.4402 21.5606C16.1588 21.2793 16.0008 20.8978 16.0008 20.5C16.0008 20.1021 16.1588 19.7206 16.4402 19.4393C16.7215 19.158 17.103 19 17.5008 19C17.8986 19 18.2802 19.158 18.5615 19.4393C18.8428 19.7206 19.0008 20.1021 19.0008 20.5C19.0008 20.8978 18.8428 21.2793 18.5615 21.5606C18.2802 21.8419 17.8986 22 17.5008 22Z" fill="black"/>
</svg>
